<svg xmlns="http://www.w3.org/2000/svg" xmlns:xlink="http://www.w3.org/1999/xlink" contentStyleType="text/css" data-diagram-type="STATE" height="2160px" preserveAspectRatio="none" style="width:1231px;height:2160px;background:#FFFFFF;" version="1.1" viewBox="0 0 1231 2160" width="1231px" zoomAndPan="magnify"><?plantuml 1.2026.7beta1?><defs/><g><g class="title" data-source-line="1"><text fill="#000000" font-family="sans-serif" font-size="14" font-weight="700" lengthAdjust="spacing" textLength="286.8223" x="468.8538" y="22.9951">lcd_display functional state diagram</text></g><g class="entity" data-qualified-name="Boot" data-source-line="5" id="ent0001"><path d="M845.86,124.2969 L1064.8073,124.2969 A12.5,12.5 0 0 1 1077.3073,136.7969 L1077.3073,150.5938 L833.36,150.5938 L833.36,136.7969 A12.5,12.5 0 0 1 845.86,124.2969" fill="#F1F1F1"/><rect fill="none" height="158.8906" rx="12.5" ry="12.5" style="stroke:#181818;stroke-width:0.5;" width="243.9473" x="833.36" y="124.2969"/><line style="stroke:#181818;stroke-width:0.5;" x1="833.36" x2="1077.3073" y1="150.5938" y2="150.5938"/><text fill="#000000" font-family="sans-serif" font-size="14" lengthAdjust="spacing" textLength="32.2246" x="939.2213" y="142.292">Boot</text><g class="entity" data-qualified-name="Boot.LogStartup" data-source-line="7" id="ent0002"><rect fill="#F1F1F1" height="52.5938" rx="12.5" ry="12.5" style="stroke:#181818;stroke-width:0.5;" width="207.9473" x="845.36" y="217.5938"/><line style="stroke:#181818;stroke-width:0.5;" x1="845.36" x2="1053.3073" y1="243.8906" y2="243.8906"/><text fill="#000000" font-family="sans-serif" font-size="14" lengthAdjust="spacing" textLength="77.2119" x="910.7277" y="235.5889">LogStartup</text><text fill="#000000" font-family="sans-serif" font-size="14" lengthAdjust="spacing" textLength="187.9473" x="850.36" y="261.8857">log "button-capture demo"</text></g><g class="start_entity" data-qualified-name="Boot..start.Boot" data-source-line="6" id="ent0023"><ellipse cx="949.33" cy="171.5938" fill="#222222" rx="10" ry="10" style="stroke:#222222;stroke-width:1;"/></g><!--link *start*Boot to LogStartup--><g class="link" data-entity-1="ent0023" data-entity-2="ent0002" data-link-type="dependency" data-source-line="6" id="lnk24"><path d="M949.33,182.0738 C949.33,191.0638 949.33,199.9938 949.33,212.2438" fill="none" id="*start*Boot-to-LogStartup" style="stroke:#181818;stroke-width:1;"/><polygon fill="#181818" points="949.33,217.2438,953.33,208.2438,949.33,212.2438,945.33,208.2438,949.33,217.2438" style="stroke:#181818;stroke-width:1;stroke-linejoin:miter;stroke-miterlimit:10;"/></g></g><g class="entity" data-qualified-name="InitI2C" data-source-line="11" id="ent0003"><rect fill="#F1F1F1" height="52.5938" rx="12.5" ry="12.5" style="stroke:#181818;stroke-width:0.5;" width="112.627" x="899.02" y="344.1869"/><line style="stroke:#181818;stroke-width:0.5;" x1="899.02" x2="1011.647" y1="370.4838" y2="370.4838"/><text fill="#000000" font-family="sans-serif" font-size="14" lengthAdjust="spacing" textLength="45.1924" x="932.7373" y="362.182">InitI2C</text><text fill="#000000" font-family="sans-serif" font-size="14" lengthAdjust="spacing" textLength="92.627" x="904.02" y="388.4789">bsp_i2c_init()</text></g><g class="entity" data-qualified-name="InitLCD" data-source-line="15" id="ent0004"><rect fill="#F1F1F1" height="101.4844" rx="12.5" ry="12.5" style="stroke:#181818;stroke-width:0.5;" width="278.8018" x="713.93" y="473.7769"/><line style="stroke:#181818;stroke-width:0.5;" x1="713.93" x2="992.7318" y1="500.0738" y2="500.0738"/><text fill="#000000" font-family="sans-serif" font-size="14" lengthAdjust="spacing" textLength="50.7363" x="827.9627" y="491.772">InitLCD</text><text fill="#000000" font-family="sans-serif" font-size="14" lengthAdjust="spacing" textLength="218.8525" x="718.93" y="518.0689">bsp_display_start_with_config()</text><text fill="#000000" font-family="sans-serif" font-size="14" lengthAdjust="spacing" textLength="188.4395" x="718.93" y="534.3657">bsp_display_backlight_on()</text><text fill="#000000" font-family="sans-serif" font-size="14" lengthAdjust="spacing" textLength="258.8018" x="718.93" y="550.6626">create full-screen LVGL image object</text><text fill="#000000" font-family="sans-serif" font-size="14" lengthAdjust="spacing" textLength="181.0361" x="718.93" y="566.9595">hide image object initially</text></g><g class="entity" data-qualified-name="InitCamera" data-source-line="21" id="ent0005"><rect fill="#F1F1F1" height="68.8906" rx="12.5" ry="12.5" style="stroke:#181818;stroke-width:0.5;" width="370.3896" x="633.14" y="636.2669"/><line style="stroke:#181818;stroke-width:0.5;" x1="633.14" x2="1003.5296" y1="662.5638" y2="662.5638"/><text fill="#000000" font-family="sans-serif" font-size="14" lengthAdjust="spacing" textLength="77.3213" x="779.6742" y="654.262">InitCamera</text><text fill="#000000" font-family="sans-serif" font-size="14" lengthAdjust="spacing" textLength="350.3896" x="638.14" y="680.5589">esp_camera_init(BSP_CAMERA_DEFAULT_CONFIG)</text><text fill="#000000" font-family="sans-serif" font-size="14" lengthAdjust="spacing" textLength="342.4736" x="638.14" y="696.8557">RGB565, 240x240, double framebuffer in PSRAM</text></g><g class="entity" data-qualified-name="ConfigureSensor" data-source-line="26" id="ent0006"><rect fill="#F1F1F1" height="68.8906" rx="12.5" ry="12.5" style="stroke:#181818;stroke-width:0.5;" width="279.0068" x="531.83" y="782.1569"/><line style="stroke:#181818;stroke-width:0.5;" x1="531.83" x2="810.8368" y1="808.4538" y2="808.4538"/><text fill="#000000" font-family="sans-serif" font-size="14" lengthAdjust="spacing" textLength="116.1494" x="613.2587" y="800.152">ConfigureSensor</text><text fill="#000000" font-family="sans-serif" font-size="14" lengthAdjust="spacing" textLength="207.7168" x="536.83" y="826.4489">set_vflip(BSP_CAMERA_VFLIP)</text><text fill="#000000" font-family="sans-serif" font-size="14" lengthAdjust="spacing" textLength="259.0068" x="536.83" y="842.7457">set_hmirror(BSP_CAMERA_HMIRROR)</text></g><g class="entity" data-qualified-name="InitButtons" data-source-line="30" id="ent0007"><rect fill="#F1F1F1" height="68.8906" rx="12.5" ry="12.5" style="stroke:#181818;stroke-width:0.5;" width="349.9707" x="470.35" y="928.0469"/><line style="stroke:#181818;stroke-width:0.5;" x1="470.35" x2="820.3207" y1="954.3438" y2="954.3438"/><text fill="#000000" font-family="sans-serif" font-size="14" lengthAdjust="spacing" textLength="76.5693" x="607.0507" y="946.042">InitButtons</text><text fill="#000000" font-family="sans-serif" font-size="14" lengthAdjust="spacing" textLength="165.8604" x="475.35" y="972.3389">bsp_iot_button_create()</text><text fill="#000000" font-family="sans-serif" font-size="14" lengthAdjust="spacing" textLength="329.9707" x="475.35" y="988.6357">register MENU BUTTON_PRESS_DOWN callback</text></g><g class="entity" data-qualified-name="ReadyIdle" data-source-line="35" id="ent0008"><path d="M19.5,1073.9369 L759.1709,1073.9369 A12.5,12.5 0 0 1 771.6709,1086.4369 L771.6709,1100.2338 L7,1100.2338 L7,1086.4369 A12.5,12.5 0 0 1 19.5,1073.9369" fill="#F1F1F1"/><rect fill="none" height="989.5306" rx="12.5" ry="12.5" style="stroke:#181818;stroke-width:0.5;" width="764.6709" x="7" y="1073.9369"/><line style="stroke:#181818;stroke-width:0.5;" x1="7" x2="771.6709" y1="1100.2338" y2="1100.2338"/><text fill="#000000" font-family="sans-serif" font-size="14" lengthAdjust="spacing" textLength="69.6104" x="354.5303" y="1091.932">ReadyIdle</text><g class="entity" data-qualified-name="ReadyIdle.WaitingForMenu" data-source-line="37" id="ent0009"><rect fill="#F1F1F1" height="68.8906" rx="12.5" ry="12.5" style="stroke:#181818;stroke-width:0.5;" width="319.4209" x="428.25" y="1168.2338"/><line style="stroke:#181818;stroke-width:0.5;" x1="428.25" x2="747.6709" y1="1194.5306" y2="1194.5306"/><text fill="#000000" font-family="sans-serif" font-size="14" lengthAdjust="spacing" textLength="114.2627" x="530.8291" y="1186.2289">WaitingForMenu</text><text fill="#000000" font-family="sans-serif" font-size="14" lengthAdjust="spacing" textLength="214.1973" x="433.25" y="1212.5257">app_main yields every 100 ms</text><text fill="#000000" font-family="sans-serif" font-size="14" lengthAdjust="spacing" textLength="299.4209" x="433.25" y="1228.8226">LVGL task refreshes display independently</text></g><g class="entity" data-qualified-name="ReadyIdle.CaptureRequested" data-source-line="41" id="ent0010"><rect fill="#F1F1F1" height="52.5938" rx="12.5" ry="12.5" style="stroke:#181818;stroke-width:0.5;" width="150.9697" x="378.48" y="1290.1238"/><line style="stroke:#181818;stroke-width:0.5;" x1="378.48" x2="529.4497" y1="1316.4206" y2="1316.4206"/><text fill="#000000" font-family="sans-serif" font-size="14" lengthAdjust="spacing" textLength="130.9697" x="388.48" y="1308.1189">CaptureRequested</text><text fill="#000000" font-family="sans-serif" font-size="14" lengthAdjust="spacing" textLength="126.3828" x="383.48" y="1334.4157">on_button_press()</text></g><g class="entity" data-qualified-name="ReadyIdle.CaptureFrame" data-source-line="44" id="ent0011"><rect fill="#F1F1F1" height="52.5938" rx="12.5" ry="12.5" style="stroke:#181818;stroke-width:0.5;" width="166.3848" x="370.77" y="1379.7138"/><line style="stroke:#181818;stroke-width:0.5;" x1="370.77" x2="537.1548" y1="1406.0106" y2="1406.0106"/><text fill="#000000" font-family="sans-serif" font-size="14" lengthAdjust="spacing" textLength="100.6113" x="403.6567" y="1397.7089">CaptureFrame</text><text fill="#000000" font-family="sans-serif" font-size="14" lengthAdjust="spacing" textLength="146.3848" x="375.77" y="1424.0057">esp_camera_fb_get()</text></g><g class="entity" data-qualified-name="ReadyIdle.CaptureFailed" data-source-line="48" id="ent0012"><rect fill="#F1F1F1" height="52.5938" rx="12.5" ry="12.5" style="stroke:#181818;stroke-width:0.5;" width="200.2363" x="442.85" y="1485.3038"/><line style="stroke:#181818;stroke-width:0.5;" x1="442.85" x2="643.0863" y1="1511.6006" y2="1511.6006"/><text fill="#000000" font-family="sans-serif" font-size="14" lengthAdjust="spacing" textLength="97.8838" x="494.0263" y="1503.2989">CaptureFailed</text><text fill="#000000" font-family="sans-serif" font-size="14" lengthAdjust="spacing" textLength="180.2363" x="447.85" y="1529.5957">log camera capture failed</text></g><g class="entity" data-qualified-name="ReadyIdle.EnsureImageBuffer" data-source-line="51" id="ent0013"><rect fill="#F1F1F1" height="52.5938" rx="12.5" ry="12.5" style="stroke:#181818;stroke-width:0.5;" width="405.9297" x="19" y="1485.3038"/><line style="stroke:#181818;stroke-width:0.5;" x1="19" x2="424.9297" y1="1511.6006" y2="1511.6006"/><text fill="#000000" font-family="sans-serif" font-size="14" lengthAdjust="spacing" textLength="134.8047" x="154.5625" y="1503.2989">EnsureImageBuffer</text><text fill="#000000" font-family="sans-serif" font-size="14" lengthAdjust="spacing" textLength="385.9297" x="24" y="1529.5957">if fb-&gt;len &gt; buffer_size, free old buffer and malloc new</text></g><g class="entity" data-qualified-name="ReadyIdle.CopyAndConvert" data-source-line="55" id="ent0014"><rect fill="#F1F1F1" height="68.8906" rx="12.5" ry="12.5" style="stroke:#181818;stroke-width:0.5;" width="392.9277" x="194.5" y="1590.9038"/><line style="stroke:#181818;stroke-width:0.5;" x1="194.5" x2="587.4277" y1="1617.2006" y2="1617.2006"/><text fill="#000000" font-family="sans-serif" font-size="14" lengthAdjust="spacing" textLength="118.207" x="331.8604" y="1608.8989">CopyAndConvert</text><text fill="#000000" font-family="sans-serif" font-size="14" lengthAdjust="spacing" textLength="303.625" x="199.5" y="1635.1957">memcpy camera frame to persistent buffer</text><text fill="#000000" font-family="sans-serif" font-size="14" lengthAdjust="spacing" textLength="372.9277" x="199.5" y="1651.4926">swap RGB565 byte pairs for LVGL little-endian layout</text></g><g class="entity" data-qualified-name="ReadyIdle.UpdateImageDescriptor" data-source-line="59" id="ent0015"><rect fill="#F1F1F1" height="52.5938" rx="12.5" ry="12.5" style="stroke:#181818;stroke-width:0.5;" width="370.4307" x="272.75" y="1696.7938"/><line style="stroke:#181818;stroke-width:0.5;" x1="272.75" x2="643.1807" y1="1723.0906" y2="1723.0906"/><text fill="#000000" font-family="sans-serif" font-size="14" lengthAdjust="spacing" textLength="167.2754" x="374.3276" y="1714.7889">UpdateImageDescriptor</text><text fill="#000000" font-family="sans-serif" font-size="14" lengthAdjust="spacing" textLength="350.4307" x="277.75" y="1741.0857">set LVGL img descriptor format, size, data pointer</text></g><g class="entity" data-qualified-name="ReadyIdle.TryDisplayLock" data-source-line="62" id="ent0016"><rect fill="#F1F1F1" height="52.5938" rx="12.5" ry="12.5" style="stroke:#181818;stroke-width:0.5;" width="156.8691" x="379.53" y="1786.3838"/><line style="stroke:#181818;stroke-width:0.5;" x1="379.53" x2="536.3991" y1="1812.6806" y2="1812.6806"/><text fill="#000000" font-family="sans-serif" font-size="14" lengthAdjust="spacing" textLength="106.3672" x="404.781" y="1804.3789">TryDisplayLock</text><text fill="#000000" font-family="sans-serif" font-size="14" lengthAdjust="spacing" textLength="136.8691" x="384.53" y="1830.6757">bsp_display_lock(0)</text></g><g class="entity" data-qualified-name="ReadyIdle.DisplayStillImage" data-source-line="66" id="ent0017"><rect fill="#F1F1F1" height="68.8906" rx="12.5" ry="12.5" style="stroke:#181818;stroke-width:0.5;" width="145.2549" x="496.34" y="1891.9838"/><line style="stroke:#181818;stroke-width:0.5;" x1="496.34" x2="641.5949" y1="1918.2806" y2="1918.2806"/><text fill="#000000" font-family="sans-serif" font-size="14" lengthAdjust="spacing" textLength="121.4951" x="508.2199" y="1909.9789">DisplayStillImage</text><text fill="#000000" font-family="sans-serif" font-size="14" lengthAdjust="spacing" textLength="112.6563" x="501.34" y="1936.2757">lv_img_set_src()</text><text fill="#000000" font-family="sans-serif" font-size="14" lengthAdjust="spacing" textLength="125.2549" x="501.34" y="1952.5726">clear HIDDEN flag</text></g><g class="entity" data-qualified-name="ReadyIdle.ReturnFrameNoUpdate" data-source-line="70" id="ent0018"><rect fill="#F1F1F1" height="52.5938" rx="12.5" ry="12.5" style="stroke:#181818;stroke-width:0.5;" width="238.3398" x="239.79" y="1900.1238"/><line style="stroke:#181818;stroke-width:0.5;" x1="239.79" x2="478.1298" y1="1926.4206" y2="1926.4206"/><text fill="#000000" font-family="sans-serif" font-size="14" lengthAdjust="spacing" textLength="161.7109" x="278.1045" y="1918.1189">ReturnFrameNoUpdate</text><text fill="#000000" font-family="sans-serif" font-size="14" lengthAdjust="spacing" textLength="218.3398" x="244.79" y="1944.4157">keep previous display contents</text></g><g class="entity" data-qualified-name="ReadyIdle.ReturnFrame" data-source-line="73" id="ent0019"><rect fill="#F1F1F1" height="52.5938" rx="12.5" ry="12.5" style="stroke:#181818;stroke-width:0.5;" width="200.5713" x="468.68" y="1997.8738"/><line style="stroke:#181818;stroke-width:0.5;" x1="468.68" x2="669.2513" y1="2024.1706" y2="2024.1706"/><text fill="#000000" font-family="sans-serif" font-size="14" lengthAdjust="spacing" textLength="91.9707" x="522.9803" y="2015.8689">ReturnFrame</text><text fill="#000000" font-family="sans-serif" font-size="14" lengthAdjust="spacing" textLength="180.5713" x="473.68" y="2042.1657">esp_camera_fb_return(fb)</text></g><g class="start_entity" data-qualified-name="ReadyIdle..start.ReadyIdle" data-source-line="36" id="ent0034"><ellipse cx="587.96" cy="1121.2338" fill="#222222" rx="10" ry="10" style="stroke:#222222;stroke-width:1;"/></g><!--link *start*ReadyIdle to WaitingForMenu--><g class="link" data-entity-1="ent0034" data-entity-2="ent0009" data-link-type="dependency" data-source-line="36" id="lnk35"><path d="M587.96,1131.6538 C587.96,1140.6138 587.96,1149.6438 587.96,1162.7938" fill="none" id="*start*ReadyIdle-to-WaitingForMenu" style="stroke:#181818;stroke-width:1;"/><polygon fill="#181818" points="587.96,1167.7938,591.96,1158.7938,587.96,1162.7938,583.96,1158.7938,587.96,1167.7938" style="stroke:#181818;stroke-width:1;stroke-linejoin:miter;stroke-miterlimit:10;"/></g><!--link WaitingForMenu to CaptureRequested--><g class="link" data-entity-1="ent0009" data-entity-2="ent0010" data-link-type="dependency" data-source-line="39" id="lnk36"><path d="M471.67,1237.5238 C465.32,1242.5938 459.64,1248.4238 454.96,1255.1238 C448.08,1264.9938 446.6943,1273.1864 447.7943,1284.6964" fill="none" id="WaitingForMenu-to-CaptureRequested" style="stroke:#181818;stroke-width:1;"/><polygon fill="#181818" points="448.27,1289.6738,451.3956,1280.334,447.7943,1284.6964,443.4319,1281.0951,448.27,1289.6738" style="stroke:#181818;stroke-width:1;stroke-linejoin:miter;stroke-miterlimit:10;"/><text fill="#000000" font-family="sans-serif" font-size="13" lengthAdjust="spacing" textLength="117.1523" x="455.96" y="1268.1906">MENU press down</text></g><!--link CaptureRequested to CaptureFrame--><g class="link" data-entity-1="ent0010" data-entity-2="ent0011" data-link-type="dependency" data-source-line="42" id="lnk37"><path d="M453.96,1342.7538 C453.96,1354.2738 453.96,1362.8738 453.96,1374.4238" fill="none" id="CaptureRequested-to-CaptureFrame" style="stroke:#181818;stroke-width:1;"/><polygon fill="#181818" points="453.96,1379.4238,457.96,1370.4238,453.96,1374.4238,449.96,1370.4238,453.96,1379.4238" style="stroke:#181818;stroke-width:1;stroke-linejoin:miter;stroke-miterlimit:10;"/></g><!--link CaptureFrame to CaptureFailed--><g class="link" data-entity-1="ent0011" data-entity-2="ent0012" data-link-type="dependency" data-source-line="45" id="lnk38"><path d="M469.97,1432.5638 C477.36,1443.6538 486.57,1456.5438 495.96,1467.3038 C501.22,1473.3238 503.5919,1475.9539 509.5319,1481.5539" fill="none" id="CaptureFrame-to-CaptureFailed" style="stroke:#181818;stroke-width:1;"/><polygon fill="#181818" points="513.17,1484.9838,509.3653,1475.8995,509.5319,1481.5539,503.8775,1481.7205,513.17,1484.9838" style="stroke:#181818;stroke-width:1;stroke-linejoin:miter;stroke-miterlimit:10;"/><text fill="#000000" font-family="sans-serif" font-size="13" lengthAdjust="spacing" textLength="76.6035" x="496.96" y="1463.3706">fb == NULL</text></g><!--link CaptureFrame to EnsureImageBuffer--><g class="link" data-entity-1="ent0011" data-entity-2="ent0013" data-link-type="dependency" data-source-line="46" id="lnk39"><path d="M396.32,1432.7538 C360.76,1448.6338 319.8654,1466.8848 284.2854,1482.7748" fill="none" id="CaptureFrame-to-EnsureImageBuffer" style="stroke:#181818;stroke-width:1;"/><polygon fill="#181818" points="279.72,1484.8138,289.5688,1484.796,284.2854,1482.7748,286.3066,1477.4914,279.72,1484.8138" style="stroke:#181818;stroke-width:1;stroke-linejoin:miter;stroke-miterlimit:10;"/><text fill="#000000" font-family="sans-serif" font-size="13" lengthAdjust="spacing" textLength="70.9224" x="352.96" y="1463.3706">fb != NULL</text></g><!--link CaptureFailed to WaitingForMenu--><g class="link" data-entity-1="ent0012" data-entity-2="ent0009" data-link-type="dependency" data-source-line="49" id="lnk40"><path d="M564.89,1484.9238 C568.54,1479.4238 571.82,1473.4138 573.96,1467.3038 C601.56,1388.5838 597.4806,1293.5306 592.5306,1242.2706" fill="none" id="CaptureFailed-to-WaitingForMenu" style="stroke:#181818;stroke-width:1;"/><polygon fill="#181818" points="592.05,1237.2938,588.9336,1246.6366,592.5306,1242.2706,596.8966,1245.8676,592.05,1237.2938" style="stroke:#181818;stroke-width:1;stroke-linejoin:miter;stroke-miterlimit:10;"/></g><!--link EnsureImageBuffer to CopyAndConvert--><g class="link" data-entity-1="ent0013" data-entity-2="ent0014" data-link-type="dependency" data-source-line="52" id="lnk41"><path d="M260.74,1538.2438 C284.22,1553.7738 310.2794,1570.9958 335.6994,1587.8058" fill="none" id="EnsureImageBuffer-to-CopyAndConvert" style="stroke:#181818;stroke-width:1;"/><polygon fill="#181818" points="339.87,1590.5638,334.5693,1582.263,335.6994,1587.8058,330.1566,1588.9359,339.87,1590.5638" style="stroke:#181818;stroke-width:1;stroke-linejoin:miter;stroke-miterlimit:10;"/><text fill="#000000" font-family="sans-serif" font-size="13" lengthAdjust="spacing" textLength="123.4619" x="312.96" y="1568.9706">s_img_buf != NULL</text></g><!--link EnsureImageBuffer to ReturnFrameNoUpdate--><g class="link" data-entity-1="ent0013" data-entity-2="ent0018" data-link-type="dependency" data-source-line="53" id="lnk42"><path d="M172.31,1538.3038 C142.75,1557.5138 110.96,1586.8838 110.96,1624.3438 C110.96,1624.3438 110.96,1624.3438 110.96,1813.6838 C110.96,1875.5438 171.0031,1902.3934 234.4131,1914.8034" fill="none" id="EnsureImageBuffer-to-ReturnFrameNoUpdate" style="stroke:#181818;stroke-width:1;"/><polygon fill="#181818" points="239.32,1915.7638,231.2558,1910.1096,234.4131,1914.8034,229.7193,1917.9607,239.32,1915.7638" style="stroke:#181818;stroke-width:1;stroke-linejoin:miter;stroke-miterlimit:10;"/><text fill="#000000" font-family="sans-serif" font-size="13" lengthAdjust="spacing" textLength="142.4478" x="111.96" y="1727.6506">allocation unavailable</text></g><!--link CopyAndConvert to UpdateImageDescriptor--><g class="link" data-entity-1="ent0014" data-entity-2="ent0015" data-link-type="dependency" data-source-line="57" id="lnk43"><path d="M414.59,1660.1038 C422.95,1672.0538 429.3549,1681.196 437.1649,1692.366" fill="none" id="CopyAndConvert-to-UpdateImageDescriptor" style="stroke:#181818;stroke-width:1;"/><polygon fill="#181818" points="440.03,1696.4638,438.151,1686.7958,437.1649,1692.366,431.5947,1691.3799,440.03,1696.4638" style="stroke:#181818;stroke-width:1;stroke-linejoin:miter;stroke-miterlimit:10;"/></g><!--link UpdateImageDescriptor to TryDisplayLock--><g class="link" data-entity-1="ent0015" data-entity-2="ent0016" data-link-type="dependency" data-source-line="60" id="lnk44"><path d="M457.96,1749.4238 C457.96,1760.9438 457.96,1769.5538 457.96,1781.1038" fill="none" id="UpdateImageDescriptor-to-TryDisplayLock" style="stroke:#181818;stroke-width:1;"/><polygon fill="#181818" points="457.96,1786.1038,461.96,1777.1038,457.96,1781.1038,453.96,1777.1038,457.96,1786.1038" style="stroke:#181818;stroke-width:1;stroke-linejoin:miter;stroke-miterlimit:10;"/></g><!--link TryDisplayLock to DisplayStillImage--><g class="link" data-entity-1="ent0016" data-entity-2="ent0017" data-link-type="dependency" data-source-line="63" id="lnk45"><path d="M505.44,1839.3638 C513.1,1844.6238 520.6,1850.5438 526.96,1856.9838 C536.87,1866.9838 542.9992,1875.4241 549.8092,1887.2141" fill="none" id="TryDisplayLock-to-DisplayStillImage" style="stroke:#181818;stroke-width:1;"/><polygon fill="#181818" points="552.31,1891.5438,551.2722,1881.7497,549.8092,1887.2141,544.3448,1885.7511,552.31,1891.5438" style="stroke:#181818;stroke-width:1;stroke-linejoin:miter;stroke-miterlimit:10;"/><text fill="#000000" font-family="sans-serif" font-size="13" lengthAdjust="spacing" textLength="87.1851" x="542.96" y="1870.0506">lock acquired</text></g><!--link TryDisplayLock to ReturnFrameNoUpdate--><g class="link" data-entity-1="ent0016" data-entity-2="ent0018" data-link-type="dependency" data-source-line="64" id="lnk46"><path d="M430.24,1839.2038 C424.39,1844.9138 418.35,1851.0338 412.96,1856.9838 C400.67,1870.5538 390.9614,1882.6075 380.9514,1895.7375" fill="none" id="TryDisplayLock-to-ReturnFrameNoUpdate" style="stroke:#181818;stroke-width:1;"/><polygon fill="#181818" points="377.92,1899.7138,386.5575,1894.9816,380.9514,1895.7375,380.1955,1890.1314,377.92,1899.7138" style="stroke:#181818;stroke-width:1;stroke-linejoin:miter;stroke-miterlimit:10;"/><text fill="#000000" font-family="sans-serif" font-size="13" lengthAdjust="spacing" textLength="112.6074" x="413.96" y="1870.0506">lock not acquired</text></g><!--link DisplayStillImage to ReturnFrame--><g class="link" data-entity-1="ent0017" data-entity-2="ent0019" data-link-type="dependency" data-source-line="68" id="lnk47"><path d="M568.96,1961.1838 C568.96,1973.1338 568.96,1981.3738 568.96,1992.5338" fill="none" id="DisplayStillImage-to-ReturnFrame" style="stroke:#181818;stroke-width:1;"/><polygon fill="#181818" points="568.96,1997.5338,572.96,1988.5338,568.96,1992.5338,564.96,1988.5338,568.96,1997.5338" style="stroke:#181818;stroke-width:1;stroke-linejoin:miter;stroke-miterlimit:10;"/></g><!--link ReturnFrameNoUpdate to ReturnFrame--><g class="link" data-entity-1="ent0018" data-entity-2="ent0019" data-link-type="dependency" data-source-line="71" id="lnk48"><path d="M415.52,1953.2038 C445.64,1966.9438 478.0406,1981.7094 508.1306,1995.4294" fill="none" id="ReturnFrameNoUpdate-to-ReturnFrame" style="stroke:#181818;stroke-width:1;"/><polygon fill="#181818" points="512.68,1997.5038,506.1506,1990.1304,508.1306,1995.4294,502.8316,1997.4094,512.68,1997.5038" style="stroke:#181818;stroke-width:1;stroke-linejoin:miter;stroke-miterlimit:10;"/></g><!--link ReturnFrame to WaitingForMenu--><g class="link" data-entity-1="ent0019" data-entity-2="ent0009" data-link-type="dependency" data-source-line="74" id="lnk49"><path d="M621.76,1997.4638 C646.65,1981.3238 670.96,1957.7838 670.96,1927.4238 C670.96,1315.4138 670.96,1315.4138 670.96,1315.4138 C670.96,1284.9638 654.4216,1260.933 634.0016,1240.813" fill="none" id="ReturnFrame-to-WaitingForMenu" style="stroke:#181818;stroke-width:1;"/><polygon fill="#181818" points="630.44,1237.3038,634.0435,1246.4697,634.0016,1240.813,639.6583,1240.7712,630.44,1237.3038" style="stroke:#181818;stroke-width:1;stroke-linejoin:miter;stroke-miterlimit:10;"/></g></g><g class="entity" data-qualified-name="FatalError" data-source-line="77" id="ent0020"><rect fill="#F1F1F1" height="52.5938" rx="12.5" ry="12.5" style="stroke:#181818;stroke-width:0.5;" width="316.6455" x="807.01" y="1542.4069"/><line style="stroke:#181818;stroke-width:0.5;" x1="807.01" x2="1123.6555" y1="1568.7038" y2="1568.7038"/><text fill="#000000" font-family="sans-serif" font-size="14" lengthAdjust="spacing" textLength="69.2686" x="930.6985" y="1560.402">FatalError</text><text fill="#000000" font-family="sans-serif" font-size="14" lengthAdjust="spacing" textLength="296.6455" x="812.01" y="1586.6989">ESP_ERROR_CHECK abort/restart behavior</text></g><g class="start_entity" data-qualified-name=".start." data-source-line="3" id="ent0021"><ellipse cx="955.34" cy="53.2969" fill="#222222" rx="10" ry="10" style="stroke:#222222;stroke-width:1;"/></g><g class="end_entity" data-qualified-name=".end." data-source-line="78" id="ent0050"><ellipse cx="965.34" cy="2135.4669" fill="none" rx="11" ry="11" style="stroke:#222222;stroke-width:1;"/><ellipse cx="965.34" cy="2135.4669" fill="#222222" rx="6" ry="6" style="stroke:#222222;stroke-width:1;"/></g><!--link *start* to Boot--><g class="link" data-entity-1="ent0021" data-entity-2="ent0001" data-link-type="dependency" data-source-line="3" id="lnk22"><path d="M955.34,63.5769 C955.34,76.1469 955.34,94.8069 955.34,119.0969" fill="none" id="*start*-to-Boot" style="stroke:#181818;stroke-width:1;"/><polygon fill="#181818" points="955.34,124.0969,959.34,115.0969,955.34,119.0969,951.34,115.0969,955.34,124.0969" style="stroke:#181818;stroke-width:1;stroke-linejoin:miter;stroke-miterlimit:10;"/></g><!--link Boot to InitI2C--><g class="link" data-entity-1="ent0001" data-entity-2="ent0003" data-link-type="dependency" data-source-line="10" id="lnk25"><path d="M955.34,283.2569 C955.34,305.1269 955.34,322.3769 955.34,338.7869" fill="none" id="Boot-to-InitI2C" style="stroke:#181818;stroke-width:1;"/><polygon fill="#181818" points="955.34,343.7869,959.34,334.7869,955.34,338.7869,951.34,334.7869,955.34,343.7869" style="stroke:#181818;stroke-width:1;stroke-linejoin:miter;stroke-miterlimit:10;"/></g><!--link InitI2C to InitLCD--><g class="link" data-entity-1="ent0003" data-entity-2="ent0004" data-link-type="dependency" data-source-line="12" id="lnk26"><path d="M938.03,397.2769 C924.05,418.1169 906.7359,443.9249 889.6259,469.4249" fill="none" id="InitI2C-to-InitLCD" style="stroke:#181818;stroke-width:1;"/><polygon fill="#181818" points="886.84,473.5769,895.1762,468.332,889.6259,469.4249,888.533,463.8746,886.84,473.5769" style="stroke:#181818;stroke-width:1;stroke-linejoin:miter;stroke-miterlimit:10;"/><text fill="#000000" font-family="sans-serif" font-size="13" lengthAdjust="spacing" textLength="49.5625" x="918.34" y="439.8438">ESP_OK</text></g><!--link InitI2C to FatalError--><g class="link" data-entity-1="ent0003" data-entity-2="ent0020" data-link-type="dependency" data-source-line="13" id="lnk27"><path d="M986.19,397.1569 C1015.89,424.9369 1056.34,472.1869 1056.34,523.5269 C1056.34,523.5269 1056.34,523.5269 1056.34,963.4869 C1056.34,1189.9769 994.2661,1454.0895 973.2561,1537.1495" fill="none" id="InitI2C-to-FatalError" style="stroke:#181818;stroke-width:1;"/><polygon fill="#181818" points="972.03,1541.9969,978.1149,1534.2526,973.2561,1537.1495,970.3592,1532.2908,972.03,1541.9969" style="stroke:#181818;stroke-width:1;stroke-linejoin:miter;stroke-miterlimit:10;"/><text fill="#000000" font-family="sans-serif" font-size="13" lengthAdjust="spacing" textLength="158.1899" x="1057.34" y="748.2238">ESP_ERROR_CHECK fails</text></g><!--link InitLCD to InitCamera--><g class="link" data-entity-1="ent0004" data-entity-2="ent0005" data-link-type="dependency" data-source-line="19" id="lnk28"><path d="M841.19,575.5469 C836.34,595.5569 832.0496,613.218 827.6796,631.218" fill="none" id="InitLCD-to-InitCamera" style="stroke:#181818;stroke-width:1;"/><polygon fill="#181818" points="826.5,636.0769,832.5104,628.2746,827.6796,631.218,824.7362,626.3872,826.5,636.0769" style="stroke:#181818;stroke-width:1;stroke-linejoin:miter;stroke-miterlimit:10;"/></g><!--link InitCamera to ConfigureSensor--><g class="link" data-entity-1="ent0005" data-entity-2="ent0006" data-link-type="dependency" data-source-line="23" id="lnk29"><path d="M783.87,705.4469 C760.36,728.4569 732.9226,755.3088 709.4126,778.3288" fill="none" id="InitCamera-to-ConfigureSensor" style="stroke:#181818;stroke-width:1;"/><polygon fill="#181818" points="705.84,781.8269,715.0691,778.3883,709.4126,778.3288,709.4721,772.6722,705.84,781.8269" style="stroke:#181818;stroke-width:1;stroke-linejoin:miter;stroke-miterlimit:10;"/><text fill="#000000" font-family="sans-serif" font-size="13" lengthAdjust="spacing" textLength="49.5625" x="750.34" y="748.2238">ESP_OK</text></g><!--link InitCamera to FatalError--><g class="link" data-entity-1="ent0005" data-entity-2="ent0020" data-link-type="dependency" data-source-line="24" id="lnk30"><path d="M823.87,705.4669 C847.58,849.9869 939.4602,1410.0129 960.3402,1537.2329" fill="none" id="InitCamera-to-FatalError" style="stroke:#181818;stroke-width:1;"/><polygon fill="#181818" points="961.15,1542.1669,963.6396,1532.6379,960.3402,1537.2329,955.7452,1533.9335,961.15,1542.1669" style="stroke:#181818;stroke-width:1;stroke-linejoin:miter;stroke-miterlimit:10;"/><text fill="#000000" font-family="sans-serif" font-size="13" lengthAdjust="spacing" textLength="158.1899" x="856.34" y="894.1138">ESP_ERROR_CHECK fails</text></g><!--link ConfigureSensor to InitButtons--><g class="link" data-entity-1="ent0006" data-entity-2="ent0007" data-link-type="dependency" data-source-line="28" id="lnk31"><path d="M665.24,851.3369 C661.07,874.4269 656.4501,899.9967 652.2801,923.0467" fill="none" id="ConfigureSensor-to-InitButtons" style="stroke:#181818;stroke-width:1;"/><polygon fill="#181818" points="651.39,927.9669,656.9283,919.8227,652.2801,923.0467,649.0561,918.3986,651.39,927.9669" style="stroke:#181818;stroke-width:1;stroke-linejoin:miter;stroke-miterlimit:10;"/></g><!--link InitButtons to ReadyIdle--><g class="link" data-entity-1="ent0007" data-entity-2="ent0008" data-link-type="dependency" data-source-line="32" id="lnk32"><path d="M600.43,997.2669 C590.84,1006.1069 581.46,1016.1869 574.34,1026.9369 C564.4,1041.9269 557.3901,1053.1383 548.3901,1069.1483" fill="none" id="InitButtons-to-ReadyIdle" style="stroke:#181818;stroke-width:1;"/><polygon fill="#181818" points="545.94,1073.5069,553.8371,1067.6216,548.3901,1069.1483,546.8634,1063.7014,545.94,1073.5069" style="stroke:#181818;stroke-width:1;stroke-linejoin:miter;stroke-miterlimit:10;"/><text fill="#000000" font-family="sans-serif" font-size="13" lengthAdjust="spacing" textLength="49.5625" x="575.34" y="1040.0038">ESP_OK</text></g><!--link InitButtons to FatalError--><g class="link" data-entity-1="ent0007" data-entity-2="ent0020" data-link-type="dependency" data-source-line="33" id="lnk33"><path d="M655.93,997.3169 C662.59,1013.5069 672.73,1031.9369 687.34,1043.9369 C723.84,1073.9369 754.99,1041.4769 789.34,1073.9369 C930.38,1207.2469 958.2327,1456.0983 963.7127,1537.1583" fill="none" id="InitButtons-to-FatalError" style="stroke:#181818;stroke-width:1;"/><polygon fill="#181818" points="964.05,1542.1469,967.4338,1532.8976,963.7127,1537.1583,959.4521,1533.4372,964.05,1542.1469" style="stroke:#181818;stroke-width:1;stroke-linejoin:miter;stroke-miterlimit:10;"/><text fill="#000000" font-family="sans-serif" font-size="13" lengthAdjust="spacing" textLength="158.1899" x="688.34" y="1040.0038">ESP_ERROR_CHECK fails</text></g><!--link FatalError to *end*--><g class="link" data-entity-1="ent0020" data-entity-2="ent0050" data-link-type="dependency" data-source-line="78" id="lnk51"><path d="M965.34,1595.4369 C965.34,1695.7769 965.34,2053.4669 965.34,2119.2069" fill="none" id="FatalError-to-*end*" style="stroke:#181818;stroke-width:1;"/><polygon fill="#181818" points="965.34,2124.2069,969.34,2115.2069,965.34,2119.2069,961.34,2115.2069,965.34,2124.2069" style="stroke:#181818;stroke-width:1;stroke-linejoin:miter;stroke-miterlimit:10;"/></g><?plantuml-src ZLPRRzis57xNhpZhKpp4M1QiUoZG0Bx8YL5V0Zbk7uQ1e2HAvaAHAaavzORzznvIaYt7Ij67E2RFT-xVERJbLZ0GIKfIRaf13v1LCh5SIIh0M6ePf9pccXP1yDUlVyDmU0TZfMmGr4Bt7VuB05hXGkKRIxMjIhmy7U0329N3kxYoLibXGajRQRJD2lKk-3y8l1sdFvVSpcydGVCVzM9J4dwR48utLuEZe0Kl9bC4XPj7ilvq9fnHIqMejTADF8oYTKGc3-7a4sIK2nC49mFEIrC2ObpCv8NR7KcKp7ZUkBr4nZHv5ZpVMQBa6IZHp9KdguGO6Zmm2OlFzmlW1SqPgFWVbjWEVCTJTYO3bosdGXoEg3RX2IsOfdNizNSqm32en1_gEeqntybe6KOZCWrde-tYYKpMgzdyVd2k5zsFt__v_Xfk_xZvXd_NaAegHaPas74MLrd6D8O2ZvjejEngkc0clZROnWsJvbZbfWiTtCyqujAMOPRiCy7BRYwVPulvu-0DzAxWpaaN_x2SEr-N6cqnnvwF3HEQGyivPKbDLr9tisdm2QLPpet52Yt3rHR6swUdzOeyHk5cGwRhBoj8i7-E8MTgpdF4Q7gOfrZdivfr8JzJj7e4JyQwS_Y58dzaFbDwoMI5WlCBD4hBaXGKctlWJAG6s9xf0_n-SmE5wSDx_bfgdZ7lJ3EpOmRQfS5boag67z8YOo-KFLlgaO_OrufXqLAqwCjMeYaqf5vaW8ezAAn_qmOFnIxqm3eUPeww7Ll-V3uYMKnoPhkMQb3N2fROkyzY-FWHLjl5eWyTIeFdkPlSSJqjNkENHgEZqjfpQx0E0zejc7dP1RQdZOZfyyWpT3gy4xXbxg2UMcBul-mQvvZXIX5fSmjKfb0WBLK2ahtqcgj7kpoCP8fJWwImRhu8BtBiGtPCxItLY64AqbTefRPbwYYAP7CkgNjNe99qZmbIN3E-FgzT5Qn8oaDR8x-8m2eecJPksgHjSkdJDI-qR7OQn0VqN5Ak3MGuHPw-WbjyxuR8L4ub87DLPI_jk3Jgo7roKuORd9TMQHTlhw3UGEsAp_5TEqhGTq7jDTJzG5qAfUBI-WJwZJd_J_emhOTheN238FRyvjL3XDLzlhePNCAShUQyiLm8xylJ48Kq-LfnxQdNezRVIQyeyRK-AgDshuUzvupRp4OdVjZwO8bWLCF3V3eDLv09clVYNiNZVFQ7zynOwNRAdglgj9_m6NVCCM-e_TZwnUxGNdQLnODNm9w9nTysFrpbD5RQ_eQBpVtcW9ZjA4QkkphEA6xrxm00?></g></svg>
